<svg width="160" height="520" xmlns="http://www.w3.org/2000/svg">
    <polygon points="80,0 40,50 30,120 35,200 10,235 0,300 50,245 70,270 90,270 110,245 160,300 150,235 125,200 130,120 120,50" fill="#000" />
    <polygon points="80,6 44,52 34,120 39,200 53,242
        80,256 107,242 121,200 126,120 116,52" fill="#fff" />
    <circle cx="80" cy="70" r="15" fill="#000"/>
    <!--<polygon points="65,70 80,95 95,70"/>-->
    <circle cx="80" cy="130" r="20" fill="#000"/>
    <!--<polygon points="60,130 80,160 100,130"/>-->
    <circle cx="80" cy="190" r="15" fill="#000"/>
    <polygon points="65,190 80,215 95,190"/>
</svg>