<svg width="100" height="500" viewbox="0 0 500 500" xmlns="http://www.w3.org/2000/svg" xmlns:xlink="http://www.w3.org/1999/xlink">

    <circle cx="50" cy="250" r="25"  fill="#ECE4A5"/>

    <path d="
    M26,245
    C48,170 48,120 50,80 C52,120 52,170
    74,245 C74,245
    50,200
    26,245"
          fill="#ECE4A5"/>

    <path d="
    M30,250
    C49,190 49,120 50,130 C51,120 51,190
    70,250 C70,250
    50,220
    30,250"
          fill="#A34B4B"/>

    <polygon points="50,245 28,315 72,315" fill="#ECE4A5"/>
    <polygon points="50,260 35,310 65,310" fill="#A34B4B"/>

    <circle cx="50" cy="250" r="20"  fill="#A34B4B"/>
</svg>