<svg width="700" height="1000" xmlns="http://www.w3.org/2000/svg">
 <!-- Created with Method Draw - http://github.com/duopixel/Method-Draw/ -->
 <g>
  <title>background</title>
  <rect fill="#FFF" id="canvas_background" height="1002" width="702" y="-1" x="-1"/>
  <g display="none" overflow="visible" y="0" x="0" height="100%" width="100%" id="canvasGrid">
   <rect fill="url(#gridpattern)" stroke-width="0" y="0" x="0" height="100%" width="100%"/>
  </g>
 </g>
 <g>
  <!--####################################################################################-->
  <!--Top hat-->
  <path d="M125 175 L164 88 L228 162 Z"  fill="#666666" stroke="#000000" stroke-width="2" />
  <path d="M164 88 L228 162 L206 62 Z"  fill="#666666" stroke="#000000" stroke-width="2" />
  <path d="M260 42 L228 162 L206 62 Z"  fill="#666666" stroke="#000000" stroke-width="2" />
  <path d="M260 42 L228 162 L320 32 Z"  fill="#666666" stroke="#000000" stroke-width="2" />
  <path d="M368 170 L228 162 L320 32 Z"  fill="#666666" stroke="#000000" stroke-width="2" />
  <path d="M368 170 L388 18 L320 32 Z"  fill="#666666" stroke="#000000" stroke-width="2" />
  <path d="M368 170 L388 18 L450 32 Z"  fill="#666666" stroke="#000000" stroke-width="2" />
  <path d="M368 170 L496 198 L450 32 Z"  fill="#666666" stroke="#000000" stroke-width="2" />
  <path d="M518 48 L496 198 L450 32 Z"  fill="#666666" stroke="#000000" stroke-width="2" />
  <path d="M518 48 L496 198 L572 74 Z"  fill="#666666" stroke="#000000" stroke-width="2" />
  <path d="M630 100 L496 198 L572 74 Z"  fill="#666666" stroke="#000000" stroke-width="2" />
  <path d="M630 100 L496 198 L588 240 Z"  fill="#666666" stroke="#000000" stroke-width="2" />
  <path d="M630 100 L670 170 L588 240 Z"  fill="#666666" stroke="#000000" stroke-width="2" />
  <path d="M648 306 L670 170 L588 240 Z"  fill="#666666" stroke="#000000" stroke-width="2" />
  <path d="M648 306 L670 170 L696 250 Z"  fill="#666666" stroke="#000000" stroke-width="2" />
  <path d="M648 306 L694 352 L696 250 Z"  fill="#666666" stroke="#000000" stroke-width="2" />
  <path d="M648 306 L694 352 L676 400 Z"  fill="#666666" stroke="#000000" stroke-width="2" />
  <!--####################################################################################-->
  <!--Bottom hat-->
  <path d="M91 374 L160 308 L52 324 Z"  fill="#7f7f7f" stroke="#000000" stroke-width="2" />
  <path d="M22 252 L160 308 L52 324 Z"  fill="#7f7f7f" stroke="#000000" stroke-width="2" />
  <path d="M22 252 L160 308 L46 208 Z"  fill="#7f7f7f" stroke="#000000" stroke-width="2" />
  <path d="M125 175 L160 308 L46 208 Z"  fill="#7f7f7f" stroke="#000000" stroke-width="2" />
  <path d="M125 175 L160 308 L228 162 Z"  fill="#7f7f7f" stroke="#000000" stroke-width="2" />
  <path d="M260 272 L160 308 L228 162 Z"  fill="#7f7f7f" stroke="#000000" stroke-width="2" />
  <path d="M260 272 L368 170 L228 162 Z"  fill="#7f7f7f" stroke="#000000" stroke-width="2" />
  <path d="M260 272 L368 170 L382 268 Z"  fill="#7f7f7f" stroke="#000000" stroke-width="2" />
  <path d="M496 198 L368 170 L382 268 Z"  fill="#7f7f7f" stroke="#000000" stroke-width="2" />
  <path d="M496 198 L500 296 L382 268 Z"  fill="#7f7f7f" stroke="#000000" stroke-width="2" />
  <path d="M496 198 L500 296 L588 240 Z"  fill="#7f7f7f" stroke="#000000" stroke-width="2" />
  <path d="M588 338 L500 296 L588 240 Z"  fill="#7f7f7f" stroke="#000000" stroke-width="2" />
  <path d="M588 338 L648 306 L588 240 Z"  fill="#7f7f7f" stroke="#000000" stroke-width="2" />
  <path d="M588 338 L648 306 L676 400 Z"  fill="#7f7f7f" stroke="#000000" stroke-width="2" />
  <!--####################################################################################-->
  <!--Hair-->
  <path d="M91 374 L160 308 L164 370 Z"  fill="#FF0000" stroke="#000000" stroke-width="2" />
  <path d="M91 374 L146 448 L164 370 Z"  fill="#FF0000" stroke="#000000" stroke-width="2" />
  <path d="M91 374 L146 448 L110 450 Z"  fill="#FF0000" stroke="#000000" stroke-width="2" />
  <path d="M108 504 L146 448 L110 450 Z"  fill="#FF0000" stroke="#000000" stroke-width="2" />
  <path d="M226 292 L160 308 L164 370 Z"  fill="#FF0000" stroke="#000000" stroke-width="2" />
  <path d="M226 292 L160 308 L260 272 Z"  fill="#FF0000" stroke="#000000" stroke-width="2" />
  <path d="M226 292 L294 282 L260 272 Z"  fill="#FF0000" stroke="#000000" stroke-width="2" />
  <path d="M382 268 L294 282 L260 272 Z"  fill="#FF0000" stroke="#000000" stroke-width="2" />
  <path d="M382 268 L294 282 L392 302 Z"  fill="#FF0000" stroke="#000000" stroke-width="2" />
  <path d="M382 268 L500 296 L392 302 Z"  fill="#FF0000" stroke="#000000" stroke-width="2" />
  <path d="M498 368 L500 296 L392 302 Z"  fill="#FF0000" stroke="#000000" stroke-width="2" />
  <path d="M498 368 L500 296 L588 338 Z"  fill="#FF0000" stroke="#000000" stroke-width="2" />
  <path d="M498 368 L602 402 L588 338 Z"  fill="#FF0000" stroke="#000000" stroke-width="2" />
  <path d="M676 400 L602 402 L588 338 Z"  fill="#FF0000" stroke="#000000" stroke-width="2" />
  <path d="M676 400 L602 402 L612 470 Z"  fill="#FF0000" stroke="#000000" stroke-width="2" />
  <path d="M676 400 L642 522 L612 470 Z"  fill="#FF0000" stroke="#000000" stroke-width="2" />
  <path d="M604 606 L642 522 L612 470 Z"  fill="#FF0000" stroke="#000000" stroke-width="2" />
  <!--####################################################################################-->
  <!--Ear Left-->
  <path d="M58 396 L110 450 L99 405 Z"  fill="#ffff00" stroke="#000000" stroke-width="2" />
  <path d="M58 396 L110 450 L34 442 Z"  fill="#ffff00" stroke="#000000" stroke-width="2" />
  <path d="M110 450 L108 504 L34 442 Z"  fill="#ffff00" stroke="#000000" stroke-width="2" />
  <path d="M42 564 L108 504 L34 442 Z"  fill="#ffff00" stroke="#000000" stroke-width="2" />
  <path d="M42 564 L108 504 L104 544 Z"  fill="#ffff00" stroke="#000000" stroke-width="2" />
  <path d="M42 564 L106 624 L104 544 Z"  fill="#ffff00" stroke="#000000" stroke-width="2" />
  <!--####################################################################################-->
  <!--Ear Right-->
  <path d="M604 606 L642 522 L658 538 Z"  fill="#ffff00" stroke="#000000" stroke-width="2" />
  <path d="M604 606 L640 638 L658 538 Z"  fill="#ffff00" stroke="#000000" stroke-width="2" />
  <path d="M604 606 L640 638 L608 708 Z"  fill="#ffff00" stroke="#000000" stroke-width="2" />
  <path d="M604 606 L556 728 L608 708 Z"  fill="#ffff00" stroke="#000000" stroke-width="2" />
  <!--####################################################################################-->
  <!--Face-->
  <path d="M226 292 L243 389 L164 370 Z"  fill="#0000FF" stroke="#000000" stroke-width="2" />
  <path d="M226 292 L243 389 L294 282 Z"  fill="#0000FF" stroke="#000000" stroke-width="2" />
  <path d="M146 448 L243 389 L164 370 Z"  fill="#0000FF" stroke="#000000" stroke-width="2" />
  <path d="M146 448 L243 389 L199 541 Z"  fill="#0000FF" stroke="#000000" stroke-width="2" />
  <path d="M146 448 L108 504 L199 541 Z"  fill="#0000FF" stroke="#000000" stroke-width="2" />
  <path d="M104 544 L108 504 L199 541 Z"  fill="#0000FF" stroke="#000000" stroke-width="2" />
  <path d="M104 544 L106 624 L199 541 Z"  fill="#0000FF" stroke="#000000" stroke-width="2" />
  <path d="M337 479 L243 389 L199 541 Z"  fill="#0000FF" stroke="#000000" stroke-width="2" />
  <path d="M265 631 L106 624 L199 541 Z"  fill="#0000FF" stroke="#000000" stroke-width="2" />
  <path d="M265 631 L337 479 L199 541 Z"  fill="#0000FF" stroke="#000000" stroke-width="2" />
  <path d="M265 631 L337 479 L411 559 Z"  fill="#0000FF" stroke="#000000" stroke-width="2" />
  <path d="M497 457 L337 479 L411 559 Z"  fill="#0000FF" stroke="#000000" stroke-width="2" />
  <path d="M497 457 L337 479 L337 379 Z"  fill="#0000FF" stroke="#000000" stroke-width="2" />
  <path d="M243 389 L337 479 L337 379 Z"  fill="#0000FF" stroke="#000000" stroke-width="2" />
  <path d="M243 389 L294 282 L337 379 Z"  fill="#0000FF" stroke="#000000" stroke-width="2" />
  <path d="M392 302 L294 282 L337 379 Z"  fill="#0000FF" stroke="#000000" stroke-width="2" />
  <path d="M392 302 L498 368 L337 379 Z"  fill="#0000FF" stroke="#000000" stroke-width="2" />
  <path d="M497 457 L498 368 L337 379 Z"  fill="#0000FF" stroke="#000000" stroke-width="2" />
  <path d="M497 457 L498 368 L602 402 Z"  fill="#0000FF" stroke="#000000" stroke-width="2" />
  <path d="M497 457 L612 470 L602 402 Z"  fill="#0000FF" stroke="#000000" stroke-width="2" />
  <path d="M497 457 L612 470 L604 606 Z"  fill="#0000FF" stroke="#000000" stroke-width="2" />
  <path d="M497 457 L493 545 L604 606 Z"  fill="#0000FF" stroke="#000000" stroke-width="2" />
  <path d="M497 457 L493 545 L411 559 Z"  fill="#0000FF" stroke="#000000" stroke-width="2" />
  <path d="M459 625 L493 545 L604 606 Z"  fill="#0000FF" stroke="#000000" stroke-width="2" />
  <path d="M459 625 L556 728 L604 606 Z"  fill="#0000FF" stroke="#000000" stroke-width="2" />
  <path d="M459 625 L556 728 L437 721 Z"  fill="#0000FF" stroke="#000000" stroke-width="2" />
  <path d="M425 807 L556 728 L437 721 Z"  fill="#0000FF" stroke="#000000" stroke-width="2" />
  <path d="M425 807 L556 728 L520 820 Z"  fill="#0000FF" stroke="#000000" stroke-width="2" />
  <path d="M425 807 L481 871 L520 820 Z"  fill="#0000FF" stroke="#000000" stroke-width="2" />
  <path d="M425 807 L481 871 L406 912 Z"  fill="#0000FF" stroke="#000000" stroke-width="2" />
  <path d="M425 807 L321 913 L406 912 Z"  fill="#0000FF" stroke="#000000" stroke-width="2" />
  <path d="M425 807 L321 913 L273 739 Z"  fill="#0000FF" stroke="#000000" stroke-width="2" />
  <path d="M425 807 L265 631 L273 739 Z"  fill="#0000FF" stroke="#000000" stroke-width="2" />
  <path d="M425 807 L265 631 L437 721 Z"  fill="#0000FF" stroke="#000000" stroke-width="2" />
  <path d="M459 625 L265 631 L437 721 Z"  fill="#0000FF" stroke="#000000" stroke-width="2" />
  <path d="M459 625 L265 631 L411 559 Z"  fill="#0000FF" stroke="#000000" stroke-width="2" />
  <path d="M459 625 L493 545 L411 559 Z"  fill="#0000FF" stroke="#000000" stroke-width="2" />
  <path d="M232 876 L321 913 L273 739 Z"  fill="#0000FF" stroke="#000000" stroke-width="2" />
  <path d="M232 876 L154 808 L273 739 Z"  fill="#0000FF" stroke="#000000" stroke-width="2" />
  <path d="M219 733 L154 808 L273 739 Z"  fill="#0000FF" stroke="#000000" stroke-width="2" />
  <path d="M219 733 L154 808 L116 736 Z"  fill="#0000FF" stroke="#000000" stroke-width="2" />
  <path d="M219 733 L106 624 L116 736 Z"  fill="#0000FF" stroke="#000000" stroke-width="2" />
  <path d="M219 733 L106 624 L265 631 Z"  fill="#0000FF" stroke="#000000" stroke-width="2" />
  <path d="M219 733 L273 739 L265 631 Z"  fill="#0000FF" stroke="#000000" stroke-width="2" />
 </g>
</svg>