<svg xmlns="http://www.w3.org/2000/svg" width="250" height="500" viewbox="0 0 250 500">

    <polyline points="65,260 75,245 95,245 110,260 135,250 150,265 170,260 185,250 200,275 220,290 220,315 225,325 225,355
                      230,360 235,380 230,400 235,410 230,435 220,445 220,460 190,485 170,490 140,495 100,490 75,490
                      60,480 55,465 35,440 35,415 28,400 28,370 25,360 22,335 27,290 40,280 50,260 65,260

                      75,280 100,270 110,260 100,270 120,290 140,285 150,265 140,285 165,310 190,300 185,280 170,260 185,280 200,275 185,280 190,300
                      205,320 220,315 205,320 200,345 210,360 225,355 210,360 205,385 220,405 230,400 220,405 210,430 220,445 210,430 195,435 185,465
                      190,485 185,465 160,465 140,495 160,465 135,450 115,455 100,490 70,460 55,465 70,460 70,435 50,410 35,415 50,410 55,390 45,365
                      28,370 45,365 50,345 40,325 22,335 40,325 45,305 40,280 45,305 65,295 75,280 65,295 80,320 110,315 120,290 110,315 125,330
                      160,325 165,310 160,325 175,345 200,345 175,345 168,370 185,390 205,385 185,390 178,420 195,435 178,420 150,420 135,450 150,420
                      135,395 140,375 168,370 140,375 120,355 125,330 120,355 90,360 70,340 80,320 70,340 50,345 70,340 90,360 80,385 55,390 80,385
                      100,405 135,395 100,405 95,430 70,435 95,430 115,455"
              stroke="#FFF" fill="transparent" stroke-width="5" stroke-linejoin="round"/>

    <circle cx="85" cy="260" r="4" fill="#FFF"/>
    <circle cx="125" cy="270" r="4" fill="#FFF"/>
    <circle cx="90" cy="295" r="4" fill="#FFF"/>
    <circle cx="135" cy="310" r="4" fill="#FFF"/>
    <circle cx="165" cy="285" r="4" fill="#FFF"/>
    <circle cx="185" cy="325" r="4" fill="#FFF"/>
    <circle cx="60" cy="320" r="4" fill="#FFF"/>
    <circle cx="100" cy="340" r="4" fill="#FFF"/>
    <circle cx="55" cy="280" r="4" fill="#FFF"/>
    <circle cx="30" cy="310" r="4" fill="#FFF"/>
    <circle cx="145" cy="350" r="4" fill="#FFF"/>
    <circle cx="190" cy="365" r="4" fill="#FFF"/>
    <circle cx="220" cy="380" r="4" fill="#FFF"/>
    <circle cx="200" cy="410" r="4" fill="#FFF"/>
    <circle cx="160" cy="395" r="4" fill="#FFF"/>
    <circle cx="110" cy="380" r="4" fill="#FFF"/>
    <circle cx="65" cy="365" r="4" fill="#FFF"/>
    <circle cx="35" cy="350" r="4" fill="#FFF"/>
    <circle cx="40" cy="390" r="4" fill="#FFF"/>
    <circle cx="225" cy="420" r="4" fill="#FFF"/>
    <circle cx="205" cy="455" r="4" fill="#FFF"/>
    <circle cx="165" cy="440" r="4" fill="#FFF"/>
    <circle cx="120" cy="425" r="4" fill="#FFF"/>
    <circle cx="75" cy="410" r="4" fill="#FFF"/>
    <circle cx="50" cy="435" r="4" fill="#FFF"/>
    <circle cx="90" cy="455" r="4" fill="#FFF"/>
    <circle cx="70" cy="482" r="4" fill="#FFF"/>
    <circle cx="130" cy="475" r="4" fill="#FFF"/>
    <circle cx="170" cy="480" r="4" fill="#FFF"/>
    <circle cx="205" cy="300" r="4" fill="#FFF"/>
    <circle cx="215" cy="340" r="4" fill="#FFF"/>

    <polyline points="75,245 45,230 90,235 95,215 115,240 140,220 130,240 155,230 155,250 190,235 185,250" stroke="#FFF" fill="transparent" stroke-width="5" stroke-linejoin="round"/>
    <polyline points="80,234 30,200 85,215 75,180 110,210 125,170 140,210 170,200 160,220 200,205 175,241" stroke="#FFF" fill="transparent" stroke-width="5" stroke-linejoin="round"/>
    <polyline points="80,214 35,165 80,180 75,135 105,170 130,130 145,180 185,155 170,195 205,180 175,214" stroke="#FFF" fill="transparent" stroke-width="5" stroke-linejoin="round"/>
    <polyline points="65,175 15,125 70,140 60,85 105,120 130,70 145,130 185,90 170,145 220,130 180,191" stroke="#FFF" fill="transparent" stroke-width="5" stroke-linejoin="round"/>
    <polyline points="55,136 10,60 70,75 80,05 120,70 160,20 160,80 210,45 190,95 225,90 185,140" stroke="#FFF" fill="transparent" stroke-width="5" stroke-linejoin="round"/>
</svg>