<svg xmlns="http://www.w3.org/2000/svg" width="500" height="500" viewbox="0 0 500 500">

    <!-- <rect width="500" height="500" fill="red"></rect> -->

    <polygon points="0,195 500,195 480,265 500,335 0,335 20,265" fill="#B83E45"/>
    <polygon points="480,210 20,210 35,265 20,320 480,320 465,265" fill="#FFF"/>

    <circle cx="250" cy="250" r="200" fill="#B83E45"/>
    <circle cx="250" cy="250" r="185" fill="#FFF"/>

    <polygon points="70,180 430,180 430,195 70,195" fill="#B83E45"/>
    <polygon points="70,320 430,320 430,305 70,305" fill="#B83E45"/>

    <polygon points="250,80 223,161 250,145 277,161" fill="#779cba"/>
    <polygon points="207,112 250,145 293,112" fill="#779cba"/>

    <circle cx="180" cy="135" r="10" fill="#779cba"/>
    <circle cx="320" cy="135" r="10" fill="#779cba"/>

    <polyline points="235,405 265,345" fill="none" stroke-linecap="round" stroke="#779cba" stroke-width="10"/>
    <polyline points="200,375 220,390" fill="none" stroke-linecap="round" stroke="#779cba" stroke-width="10"/>
    <polyline points="200,375 220,360" fill="none" stroke-linecap="round" stroke="#779cba" stroke-width="10"/>
    <polyline points="300,375 280,390" fill="none" stroke-linecap="round" stroke="#779cba" stroke-width="10"/>
    <polyline points="300,375 280,360" fill="none" stroke-linecap="round" stroke="#779cba" stroke-width="10"/>
</svg>


